<mxfile host="app.diagrams.net" modified="2024-03-22T04:49:22.293Z" agent="Mozilla/5.0 (Windows NT 10.0; Win64; x64) AppleWebKit/537.36 (KHTML, like Gecko) Chrome/122.0.0.0 Safari/537.36" version="24.0.7" etag="hxRc9ifbTqNthSOBkzUG" type="github">
  <diagram name="第 1 页" id="rar_vyNN9q5pHkIIEJjI">
    <mxGraphModel>
      <root>
        <mxCell id="0" />
        <mxCell id="1" parent="0" />
      </root>
    </mxGraphModel>
  </diagram>
</mxfile>
